<?xml version="1.0" encoding="UTF-8"?>
<svg width="14px" height="14px" viewBox="0 0 14 14" version="1.1" xmlns="http://www.w3.org/2000/svg" xmlns:xlink="http://www.w3.org/1999/xlink">
    <!-- Generator: Sketch 51.3 (57544) - http://www.bohemiancoding.com/sketch -->
    <title>Icons/Icon</title>
    <desc>Created with Sketch.</desc>
    <defs></defs>
    <g id="Symbols" stroke="none" stroke-width="1" fill="none" fill-rule="evenodd">
        <g id="Dropdown/Left-Icon/Selected" transform="translate(-17.000000, -17.000000)" fill="#1A051D">
            <g id="Icons/16px/Filter">
                <g transform="translate(16.000000, 16.000000)">
                    <g id="preferences-circle" transform="translate(1.000000, 1.875000)">
                        <path d="M13.125,1.75 C13.65,1.75 14,2.1 14,2.625 C14,3.15 13.65,3.5 13.125,3.5 L9.625,3.5 C9.1,3.5 8.75,3.15 8.75,2.625 C8.75,2.1 9.1,1.75 9.625,1.75 L13.125,1.75 Z M4.375,0 C5.8625,0 7,1.1375 7,2.625 C7,4.1125 5.8625,5.25 4.375,5.25 C3.2375,5.25 2.275,4.4625 1.925,3.5 C1.8375,3.5 1.8375,3.5 1.75,3.5 L0.875,3.5 C0.35,3.5 0,3.15 0,2.625 C0,2.1 0.35,1.75 0.875,1.75 L1.75,1.75 C1.8375,1.75 1.8375,1.75 1.925,1.75 C2.275,0.7875 3.2375,0 4.375,0 Z M0.875,10.5 C0.35,10.5 0,10.15 0,9.625 C0,9.1 0.35,8.75 0.875,8.75 L4.375,8.75 C4.9,8.75 5.25,9.1 5.25,9.625 C5.25,10.15 4.9,10.5 4.375,10.5 L0.875,10.5 Z M13.125,8.75 C13.65,8.75 14,9.1 14,9.625 C14,10.15 13.65,10.5 13.125,10.5 L12.25,10.5 C12.1625,10.5 12.1625,10.5 12.075,10.5 C11.725,11.4625 10.7625,12.25 9.625,12.25 C8.1375,12.25 7,11.1125 7,9.625 C7,8.1375 8.1375,7 9.625,7 C10.7625,7 11.725,7.7 12.075,8.75 C12.1625,8.75 12.1625,8.75 12.25,8.75 L13.125,8.75 Z" id="Combined-Shape" fill-rule="nonzero"></path>
                    </g>
                </g>
            </g>
        </g>
    </g>
</svg>