
<svg width="14px" height="12px" viewBox="0 0 14 12" version="1.1" xmlns="http://www.w3.org/2000/svg" xmlns:xlink="http://www.w3.org/1999/xlink">
    <!-- Generator: Sketch 51 (57462) - http://www.bohemiancoding.com/sketch -->
    <desc>Created with Sketch.</desc>
    <defs></defs>
    <g id="Icon" stroke="none" stroke-width="1" fill="none" fill-rule="evenodd">
        <g id="Header" transform="translate(-1005.000000, -14.000000)" fill="#65E5CD">
            <g id="Create" transform="translate(981.000000, 9.000000)">
                <path d="M35.020281,7.30214249 C35.4246914,7.30214249 35.7525308,7.62998187 35.7525308,8.03439225 L35.7525308,9.01072526 C35.7525308,9.41513564 35.4246914,9.74297502 35.020281,9.74297502 C34.6158706,9.74297502 34.2880312,9.41513564 34.2880312,9.01072526 L34.2880312,8.03439225 C34.2880312,7.62998187 34.6158706,7.30214249 35.020281,7.30214249 Z M34.447884,6.21190382 L34.4487729,4.82835103 C34.4488383,4.75825326 34.3906088,4.70137606 34.3187137,4.70131224 C34.2928147,4.70128925 34.2674973,4.70879894 34.2459994,4.72288087 L26.7449543,9.63635409 C26.6852767,9.67544527 26.6694005,9.7543038 26.7094941,9.81248955 C26.7250329,9.8350403 26.747583,9.85213477 26.7738285,9.86125924 L28.7872315,10.5612367 C28.8840144,10.5948842 28.992042,10.5698849 29.0629938,10.4974212 L33.186549,6.28599171 C33.247014,6.21503648 33.3511504,6.20848621 33.4191442,6.27136128 C33.4796216,6.32728574 33.4920811,6.42076808 33.4485422,6.49193005 L30.6714906,11.104461 L30.2583083,12.6456422 C30.2492174,12.6795518 30.2700417,12.7142264 30.3048207,12.7230901 C30.3283954,12.7290982 30.3534375,12.7217649 30.3697156,12.7040864 L31.3620492,11.6263726 C31.4326584,11.5496882 31.5438101,11.5222344 31.6433488,11.5568934 L32.301604,11.7860951 L34.2677893,12.470713 C34.3354964,12.4942883 34.4099855,12.4598847 34.4341654,12.3938702 C34.4391701,12.3802067 34.4417349,12.3658076 34.4417485,12.3512989 L34.4423471,11.3213802 C34.442556,10.9618431 34.7340771,10.6704914 35.0936143,10.6704914 C35.4528198,10.6704914 35.7440135,10.961685 35.7440135,11.3208905 C35.7440135,11.3210537 35.7440134,11.3212169 35.7440133,11.3213801 L35.7420381,13.9451716 C35.7419535,14.0358129 35.7034231,14.1208798 35.6382059,14.1744217 C35.5936362,14.2110154 35.540186,14.2299142 35.4860891,14.2295943 C35.4610348,14.2294461 35.4358565,14.2251511 35.4113213,14.2166281 L31.8637894,12.9813921 L29.9752724,15.0323967 C29.9265201,15.0853784 29.8619916,15.1131901 29.7964668,15.1128026 C29.763027,15.1126048 29.7293639,15.1050572 29.6973442,15.089799 C29.6461842,15.0654206 29.6051903,15.0234601 29.5725735,14.9632206 L27.9349655,11.6134286 L24.2171441,10.3189117 C24.1203324,10.2851992 24.0501913,10.1908257 24.038306,10.0782395 C24.0264208,9.96565329 24.0750725,9.85617005 24.1623052,9.79901256 L35.3669748,2.45952274 C35.4460215,2.40772104 35.5440921,2.40744319 35.6237838,2.45881112 C35.7034756,2.51015046 35.7526265,2.6052576 35.7525306,2.70793676 L35.7497586,6.21190389 C35.7494742,6.57146308 35.4579141,6.86279264 35.0983547,6.86279264 C34.7391096,6.86279264 34.4478838,6.57156689 34.4478838,6.21232173 C34.4478838,6.21218243 34.4478839,6.21204313 34.447884,6.21190382 Z" id="email-send" transform="translate(29.894533, 8.766642) rotate(27.000000) translate(-29.894533, -8.766642) "></path>
            </g>
        </g>
    </g>
</svg>